<svg width="0" height="0" class="hidden">
 <symbol fill="" xmlns="http://www.w3.org/2000/svg" viewBox="0 0 143 27" id="footer-logo">
    <path d="M1.78783 24.4384C0.522508 22.6068 -0.105608 20.4108 2.82917e-05 18.188V8.92406C-0.1532 6.67734 0.435585 4.44243 1.67609 2.56207C2.9052 1.11109 4.80474 0.441406 7.59818 0.441406C10.3916 0.441406 12.1794 1.11109 13.2968 2.33884C14.5099 3.89388 15.1066 5.84102 14.9728 7.80792V10.0402H9.49771V7.47308C9.54193 6.71383 9.42778 5.95368 9.1625 5.2408C9.0207 4.95305 8.79596 4.71425 8.51719 4.55513C8.23841 4.396 7.91835 4.32383 7.59818 4.34789C6.81601 4.34789 6.25733 4.57112 6.03385 5.12919C5.78108 5.92223 5.66766 6.753 5.69864 7.58469V19.5274C5.63963 20.3343 5.79375 21.1425 6.14559 21.8713C6.36906 22.4293 6.92775 22.6526 7.70991 22.6526C8.49208 22.6526 8.93903 22.4293 9.1625 21.8713C9.41655 21.117 9.53016 20.3226 9.49771 19.5274V16.8486H14.9728V19.0809C15.0865 21.0799 14.4932 23.0552 13.2968 24.6616C12.1794 26.001 10.2799 26.6707 7.59818 26.6707C4.91648 26.5591 2.9052 25.8894 1.78783 24.4384Z" fill="#111111"></path>
    <path d="M21.5653 0.776367H27.9344L32.6273 26.2243H27.4874L26.5935 20.8669H22.9062L22.0123 26.2243H16.7606L21.5653 0.776367ZM26.1466 17.5184L24.8057 7.58481L23.4649 17.5184H26.1466Z" fill="#111111"></path>
    <path d="M36.5382 5.01769H32.7391V0.776367H46.0358V4.90608H42.2368V26.2243H36.5382V5.01769Z" fill="#111111"></path>
    <path d="M56.2039 0.776367H66.0368V3.4551H59.6678V11.8261H64.8077V14.3933H59.6678V23.7688H66.0368V26.3359H56.0922V0.776367H56.2039Z" fill="#111111"></path>
    <path d="M68.942 0.776367H71.4002L78.6632 17.6301V0.776367H81.5684V26.2243H79.3336L71.9589 8.81257V26.2243H68.942V0.776367Z" fill="#111111"></path>
    <path d="M84.9205 0.776367H94.7534V3.4551H88.3843V11.8261H93.5243V14.3933H88.3843V23.7688H94.7534V26.3359H84.9205V0.776367Z" fill="#111111"></path>
    <path d="M97.6585 0.776118H102.798C104.82 0.636604 106.83 1.18759 108.497 2.33871C109.726 3.34324 110.285 5.12906 110.285 7.47295C110.285 10.7098 109.279 12.7188 107.156 13.3885L110.732 26.1125H107.268L103.916 14.1698H101.122V26.1125H97.5468V0.776118H97.6585ZM102.575 11.7143C103.727 11.8091 104.875 11.4927 105.815 10.8214C106.486 10.2633 106.821 9.14716 106.821 7.47295C106.852 6.64126 106.739 5.81049 106.486 5.01745C106.234 4.44839 105.802 3.97775 105.257 3.67808C104.487 3.32777 103.642 3.17434 102.798 3.23162H101.234V11.6027H102.575V11.7143Z" fill="#111111"></path>
    <path d="M114.754 24.3269C113.593 22.3754 113.048 20.1192 113.19 17.8533V9.37066C113.162 7.7532 113.35 6.13926 113.749 4.57127C114.123 3.39956 114.868 2.38105 115.872 1.6693C117.119 0.93162 118.559 0.581906 120.006 0.664779C122.353 0.664779 124.029 1.22285 125.034 2.4506C126.191 4.07178 126.744 6.04578 126.599 8.0313V8.92421H123.246V8.14291C123.251 7.20814 123.177 6.27464 123.023 5.35256C122.929 4.76988 122.607 4.24817 122.129 3.90158C121.501 3.4898 120.756 3.29387 120.006 3.34351C119.205 3.29223 118.412 3.52986 117.771 4.0132C117.508 4.23443 117.294 4.50693 117.14 4.814C116.986 5.12107 116.897 5.45625 116.877 5.79902C116.73 6.79683 116.655 7.80399 116.654 8.81259V18.2998C116.572 19.7452 116.8 21.1914 117.324 22.5411C117.771 23.434 118.665 23.7689 120.006 23.7689C120.535 23.8348 121.073 23.7428 121.55 23.5044C122.027 23.2661 122.423 22.8921 122.688 22.4295C123.278 21.0181 123.545 19.4927 123.47 17.9649V16.1791H120.229V13.612H126.71V26.2244H124.476L124.14 23.3224C123.847 24.295 123.237 25.1418 122.407 25.7283C121.577 26.3148 120.575 26.6072 119.559 26.5592C118.636 26.6134 117.714 26.4379 116.875 26.0483C116.036 25.6587 115.308 25.0672 114.754 24.3269Z" fill="#111111"></path>
    <path d="M133.861 17.2949L128.386 0.887695H131.738L135.649 13.1652L139.448 0.887695H142.8L137.325 17.2949V26.224H133.973V17.2949H133.861Z" fill="#111111"></path>
  </symbol>

<symbol fill="" xmlns="http://www.w3.org/2000/svg" viewBox="0 0 27 34" id="html-academy">
    <path d="M13.6426 0.0157537L13.5 0L0 1.40733V26.0129L13.5 34L27 26.0129V1.40733L13.6426 0.0157537ZM25.2344 25.0151L13.5 31.9573L1.76561 25.0151V14.9293L13.4507 21.8451L13.4701 23.0984L5.45351 18.3548L5.44295 19.5801L13.4894 24.3885L13.5088 25.675L5.46408 20.9174L5.45351 22.1427L13.5 26.9511L21.6239 22.1182V20.8929V16.909L25.2432 14.7595L25.2344 25.0151ZM25.2344 13.4519L22.0147 15.3319L20.5325 16.2071L13.4666 12.0201L13.456 13.2454L19.4957 16.818L19.4429 16.8495L19.3126 16.9247L18.4536 17.4166L13.4666 14.4689L13.456 15.6942L17.3921 18.0222L16.4591 18.6314L16.438 18.6436L13.4666 16.902L13.456 18.1273L15.4029 19.2615L13.4155 20.4483L1.7973 13.5762L13.4349 6.61831L25.2344 13.4519ZM25.2344 12.2266L13.4401 5.31075L1.76561 12.2196V2.9897L13.5 1.76442L25.2344 2.9897V12.2266Z" fill=""></path>
  </symbol>

  <symbol fill="" xmlns="http://www.w3.org/2000/svg" viewBox="0 0 21 18" id="telegram">
    <path fill-rule="evenodd" clip-rule="evenodd" d="M19.9608 0.152905C20.1393 0.302216 20.2255 0.534898 20.1872 0.764481L17.5611 16.5214C17.5244 16.7411 17.3789 16.9273 17.1745 17.0159C16.97 17.1045 16.7346 17.0833 16.5493 16.9597L8.67082 11.7074C8.51771 11.6054 8.41447 11.4437 8.38624 11.2619C8.358 11.08 8.40738 10.8947 8.52233 10.751L11.133 7.48773L6.77303 10.3944C6.577 10.525 6.32597 10.5407 6.11524 10.4353L0.862931 7.80915C0.627693 7.69153 0.485347 7.44488 0.5012 7.18235C0.517052 6.91983 0.688044 6.6921 0.935726 6.60364L19.3188 0.0382579C19.538 -0.0400244 19.7822 0.00359465 19.9608 0.152905ZM2.82626 7.32275L6.36168 9.09046L13.9231 4.0495C14.1925 3.86994 14.5525 3.91349 14.7712 4.1521C14.99 4.3907 15.0022 4.75314 14.8 5.00591L9.99502 11.0121L16.4328 15.3039L18.7083 1.65058L2.82626 7.32275Z" fill=""></path>
  </symbol>

<symbol fill="" xmlns="http://www.w3.org/2000/svg" viewBox="0 0 28 17" id="vk">
    <path d="M0.5 2.33876C0.5 1.48373 1.0151 1.02268 2.04531 0.955621L6.01515 0.980769C6.28158 0.980769 6.45921 1.10651 6.54802 1.35799C6.95655 2.61538 7.41392 3.70094 7.92014 4.61465C8.42637 5.52835 9.08801 6.58038 9.90507 7.77071C9.97611 7.9216 10.0916 7.99704 10.2514 7.99704C10.3758 7.99704 10.4735 7.93836 10.5445 7.82101L10.6244 7.54438L10.6511 3.19379C10.6511 2.89201 10.5756 2.69083 10.4246 2.59024C10.2736 2.48964 9.99388 2.4142 9.58535 2.36391C9.26563 2.31361 9.10577 2.12919 9.10577 1.81065C9.10577 1.74359 9.11465 1.69329 9.13241 1.65976C9.50542 0.57002 10.5711 0.0251479 12.3296 0.0251479L13.8216 0C14.4966 0 15.0561 0.15927 15.5001 0.477811C15.9442 0.796351 16.1662 1.29931 16.1662 1.98669V7.69527C16.2906 7.77909 16.406 7.82101 16.5126 7.82101C16.779 7.82101 17.0099 7.67012 17.2053 7.36834C19.1592 4.78649 20.216 3.05966 20.3759 2.18787C20.3759 2.1711 20.3936 2.12919 20.4291 2.06213C20.5535 1.81065 20.7577 1.5927 21.0419 1.40828C21.3261 1.22387 21.5748 1.09813 21.788 1.03107C21.859 0.997535 21.9389 0.980769 22.0277 0.980769H26.1574L26.4239 1.00592C26.7791 1.00592 27.0544 1.16519 27.2498 1.48373C27.3209 1.58432 27.3697 1.69329 27.3964 1.81065C27.423 1.92801 27.4408 2.04536 27.4496 2.16272C27.4585 2.28008 27.463 2.34714 27.463 2.36391V2.53994C27.3386 3.22732 27.0233 3.9608 26.5171 4.74038C26.0109 5.51997 25.367 6.36243 24.5855 7.26775C23.804 8.17308 23.3155 8.76825 23.1201 9.05326C22.9603 9.25444 22.8803 9.43886 22.8803 9.60651C22.8803 9.74063 22.9514 9.89152 23.0935 10.0592L26.9834 14.6864C27.1965 14.9546 27.3031 15.248 27.3031 15.5666C27.3031 15.9522 27.1432 16.2707 26.8235 16.5222C26.5038 16.7737 26.1219 16.9162 25.6779 16.9497L25.2249 16.9749H21.1752C21.1574 16.9749 21.1219 16.979 21.0686 16.9874C21.0153 16.9958 20.9798 17 20.962 17C20.5712 17 20.2071 16.8407 19.8696 16.5222C19.7453 16.3881 18.9105 15.3989 17.3652 13.5547C17.2764 13.4374 17.152 13.3284 16.9922 13.2278C16.9211 13.4961 16.8279 13.8817 16.7124 14.3846C16.597 14.8876 16.5126 15.248 16.4593 15.466L16.3794 15.8935C16.2018 16.4803 15.8287 16.8323 15.2604 16.9497L14.8874 16.9749H12.2763C10.8021 16.9749 9.33224 16.3378 7.86686 15.0636C6.40148 13.7894 5.08264 12.1423 3.91034 10.122C2.73803 8.10182 1.64566 5.75049 0.633216 3.06805C0.544405 2.8501 0.5 2.607 0.5 2.33876ZM16.5126 8.85207C16.1396 8.85207 15.8021 8.75567 15.5001 8.56287C15.1982 8.37007 15.0472 8.10602 15.0472 7.77071V1.98669C15.0472 1.65138 14.9584 1.41248 14.7808 1.26997C14.6032 1.12747 14.2923 1.05621 13.8483 1.05621L12.3296 1.10651C11.5658 1.10651 10.9886 1.23225 10.5978 1.48373C11.3793 1.8358 11.7701 2.40582 11.7701 3.19379V7.61982C11.7346 8.03895 11.5569 8.38683 11.2372 8.66346C10.9175 8.94009 10.5623 9.0784 10.1715 9.0784C9.63863 9.0784 9.2301 8.83531 8.94591 8.34911C7.56046 6.37081 6.53025 4.4931 5.85529 2.71598L5.6155 2.06213L2.07195 2.03698C1.84104 2.03698 1.71227 2.04956 1.68562 2.0747C1.65898 2.09985 1.64566 2.1711 1.64566 2.28846C1.64566 2.43935 1.66342 2.59862 1.69895 2.76627L2.25845 4.17456C3.75048 7.81262 5.37127 10.6795 7.12085 12.7751C8.87042 14.8708 10.5889 15.9186 12.2763 15.9186H14.9406C15.0472 15.9186 15.1271 15.8893 15.1804 15.8306C15.2337 15.7719 15.2781 15.6588 15.3136 15.4911L15.3669 15.2396L15.8732 13.0266C16.0152 12.7249 16.1396 12.5237 16.2462 12.4231C16.4415 12.2387 16.6725 12.1465 16.9389 12.1465C17.3652 12.1465 17.8003 12.3895 18.2444 12.8757L20.5091 15.5917C20.6512 15.8097 20.8022 15.9186 20.962 15.9186H25.3581C25.891 15.9186 26.1574 15.7929 26.1574 15.5414C26.1574 15.4576 26.1308 15.3738 26.0775 15.2899L22.2142 10.7382C21.9123 10.3861 21.7613 10.0089 21.7613 9.60651C21.7613 9.20414 21.9034 8.81854 22.1876 8.4497C22.4185 8.1144 22.867 7.55695 23.5331 6.77737C24.1992 5.99778 24.7809 5.26849 25.2782 4.5895C25.7756 3.9105 26.1042 3.29438 26.264 2.74112L26.3439 2.4142C26.3262 2.38067 26.3173 2.32618 26.3173 2.25074C26.3173 2.1753 26.3084 2.11243 26.2907 2.06213H22.1077C21.8412 2.16272 21.6281 2.31361 21.4682 2.51479L21.3084 2.9926C20.8643 4.14941 19.7009 5.93491 17.8181 8.34911C17.4451 8.68442 17.0099 8.85207 16.5126 8.85207Z" fill=""></path>
  </symbol>

 <symbol fill="" xmlns="http://www.w3.org/2000/svg" viewBox="0 0 25 19" id="youtube">
    <path d="M16.3509 8.79275L11.1145 5.30184C11.0159 5.23691 10.9016 5.19985 10.7837 5.19459C10.6657 5.18934 10.5486 5.21608 10.4446 5.27198C10.3406 5.32789 10.2537 5.41087 10.193 5.51215C10.1324 5.61343 10.1002 5.72924 10.1 5.84729V12.8291C10.1001 12.9481 10.1327 13.0648 10.1942 13.1667C10.2557 13.2686 10.3438 13.3518 10.4491 13.4073C10.5524 13.4631 10.6691 13.4895 10.7864 13.4837C10.9037 13.478 11.0172 13.4402 11.1145 13.3746L16.3509 9.88366C16.4409 9.82395 16.5148 9.7429 16.5658 9.64772C16.6169 9.55255 16.6436 9.44621 16.6436 9.3382C16.6436 9.23019 16.6169 9.12385 16.5658 9.02868C16.5148 8.93351 16.4409 8.85245 16.3509 8.79275ZM11.4091 11.6073V7.06911L14.8127 9.3382L11.4091 11.6073ZM23.8891 3.04366C23.7942 2.67547 23.6131 2.33511 23.3609 2.05061C23.1086 1.76611 22.7924 1.54561 22.4382 1.40729C18.7182 -0.0217993 12.7509 1.91553e-05 12.5 1.91553e-05C12.2491 1.91553e-05 6.28182 -0.0217993 2.56182 1.40729C2.20764 1.54561 1.8914 1.76611 1.63914 2.05061C1.38689 2.33511 1.20584 2.67547 1.11091 3.04366C0.827273 4.11275 0.5 6.07638 0.5 9.3382C0.5 12.6 0.827273 14.5637 1.11091 15.6327C1.20584 16.0009 1.38689 16.3413 1.63914 16.6258C1.8914 16.9103 2.20764 17.1308 2.56182 17.2691C6.28182 18.6982 12.2491 18.6764 12.5 18.6764H12.5764C13.3291 18.6764 18.8927 18.6327 22.4382 17.2691C22.7924 17.1308 23.1086 16.9103 23.3609 16.6258C23.6131 16.3413 23.7942 16.0009 23.8891 15.6327C24.1727 14.5637 24.5 12.6 24.5 9.3382C24.5 6.07638 24.1727 4.11275 23.8891 3.04366ZM22.6236 15.3055C22.5807 15.472 22.499 15.6259 22.3853 15.7548C22.2715 15.8838 22.1289 15.984 21.9691 16.0473C18.4782 17.3891 12.5655 17.3673 12.5 17.3673C12.4345 17.3673 6.52182 17.3891 3.03091 16.0473C2.87107 15.984 2.72846 15.8838 2.61471 15.7548C2.50096 15.6259 2.41929 15.472 2.37636 15.3055C2.11455 14.3018 1.80909 12.4582 1.80909 9.3382C1.80909 6.2182 2.11455 4.37457 2.37636 3.37093C2.41929 3.20445 2.50096 3.05047 2.61471 2.92156C2.72846 2.79264 2.87107 2.69243 3.03091 2.62911C6.52182 1.28729 12.4345 1.30911 12.5 1.30911C12.5655 1.30911 18.4782 1.28729 21.9691 2.62911C22.1289 2.69243 22.2715 2.79264 22.3853 2.92156C22.499 3.05047 22.5807 3.20445 22.6236 3.37093C22.8855 4.37457 23.1909 6.2182 23.1909 9.3382C23.1909 12.4582 22.8855 14.3018 22.6236 15.3055Z" fill=""></path>
  </symbol>

  <symbol fill="none" xmlns="http://www.w3.org/2000/svg" viewBox="0 0 18 14" id="mail">
    <path d="M0.5 5.5V13.5H17.5V5.5M0.5 0.5H17.5V2.5L9 8.5L0.5 2.5V0.5Z" stroke="currentСolor" stroke-linecap="round" stroke-linejoin="round"></path>
  </symbol>

<symbol fill="none" xmlns="http://www.w3.org/2000/svg" viewBox="0 0 16 16" id="tell">
    <path d="M7 8H15.5M15.5 8L13 5.5M15.5 8L13 10.5M5.5 0.5V5.5H2.5V10.5H5.5V15.5H3C1.5 15.5 0.5 14.5 0.5 13V3C0.5 1.5 1.5 0.5 3 0.5H5.5Z" stroke="currentСolor" stroke-linecap="round" stroke-linejoin="round"></path>
  </symbol>

  <symbol fill="none" xmlns="http://www.w3.org/2000/svg" viewBox="0 0 40 40" id="button-stick">
    <rect x="1" y="1" width="38" height="38" rx="19" fill="white"/>
<path d="M16 11L8 20L16 29V11Z" fill="currentColor"/>
<path d="M32 20L24 11V29L32 20Z" fill="currentColor"/>
<rect x="1" y="1" width="38" height="38" rx="19" stroke="currentColor" stroke-width="2" fill="none"/>
  </symbol>
</svg>
